<svg xmlns="http://www.w3.org/2000/svg" width="1550.411" height="978.329" viewBox="0 0 1550.411 978.329"><g fill="#F68212"><path d="M1030.44 519.97H925.68V261.542c-.022-86.42-70.356-156.757-156.788-156.78h-.04c-41.876 0-81.246 16.303-110.865 45.908-29.628 29.615-45.952 68.995-45.962 110.887v35.713H507.258v-35.727c.018-69.888 27.244-135.574 76.665-184.97C633.326 27.193 699.003 0 768.848 0h.07c69.848.018 135.516 27.23 184.906 76.62 49.39 49.39 76.6 115.06 76.617 184.91v258.44z"/><path d="M768.257 978.33c-41.62 0-82.022-8.164-120.084-24.263-36.738-15.54-69.72-37.773-98.033-66.086-28.312-28.31-50.546-61.294-66.085-98.032-16.1-38.062-24.262-78.465-24.262-120.085 0-41.62 8.163-82.02 24.262-120.084 15.54-36.74 37.773-69.722 66.085-98.034s61.295-50.546 98.033-66.085c38.063-16.098 78.465-24.26 120.084-24.26 41.62 0 82.02 8.162 120.084 24.26 36.74 15.54 69.723 37.774 98.034 66.086 28.312 28.312 50.547 61.295 66.086 98.033 16.1 38.06 24.262 78.464 24.262 120.083 0 41.62-8.163 82.022-24.262 120.085-15.54 36.738-37.773 69.722-66.085 98.033-28.312 28.313-61.296 50.548-98.033 66.087-38.064 16.1-78.466 24.262-120.085 24.262zm0-512.167c-112.32 0-203.7 91.38-203.7 203.7s91.38 203.702 203.7 203.702 203.7-91.38 203.7-203.702c0-112.32-91.38-203.7-203.7-203.7z"/><circle cx="769.263" cy="670.794" r="86.429"/></g><path d="M443.233 249.432V723.77c0 142.56-84.24 229.393-221.616 229.393C84.24 953.163 0 866.33 0 723.77V249.432C0 106.872 84.24 20.04 221.617 20.04s221.616 86.83 221.616 229.392zm-305.857 1.296v471.746c0 67.393 29.808 103.68 84.24 103.68 54.433 0 84.24-36.287 84.24-103.68V250.728c0-67.393-29.807-103.68-84.24-103.68-54.43 0-84.24 36.287-84.24 103.68zM1296.394 556.586h-63.504v383.617h-137.377V33h198.29c147.743 0 228.096 80.352 228.096 229.393v64.8c0 95.905-33.697 163.297-97.2 199.585l125.712 413.426H1405.26l-108.866-383.618zm-63.504-127.01h55.728c66.097 0 95.905-34.99 95.905-111.456v-46.656c0-76.464-29.81-111.457-95.905-111.457h-55.728v269.57z"/></svg>