<?xml version="1.0" encoding="utf-8"?>
<!-- Generator: Adobe Illustrator 15.1.0, SVG Export Plug-In . SVG Version: 6.00 Build 0)  -->
<!DOCTYPE svg PUBLIC "-//W3C//DTD SVG 1.1//EN" "http://www.w3.org/Graphics/SVG/1.1/DTD/svg11.dtd">
<svg version="1.1" id="Layer_1" xmlns="http://www.w3.org/2000/svg" xmlns:xlink="http://www.w3.org/1999/xlink" x="0px" y="0px"
	 width="1550.411px" height="978.329px" viewBox="0 0 1550.411 978.329" enable-background="new 0 0 1550.411 978.329"
	 xml:space="preserve">
<g>
	<g>
		<path fill="#F68212" d="M1030.441,519.969H925.678V261.543c-0.022-86.42-70.356-156.757-156.788-156.779c-0.013,0-0.028,0-0.041,0
			c-41.875,0-81.245,16.302-110.864,45.907c-29.628,29.614-45.952,68.994-45.962,110.886v35.713H507.258v-35.727
			c0.018-69.888,27.244-135.574,76.665-184.97C633.326,27.194,699.002,0,768.848,0c0.026,0,0.043,0,0.069,0
			c69.849,0.018,135.517,27.229,184.907,76.62c49.39,49.391,76.6,115.06,76.617,184.91V519.969z"/>
		<path fill="#F68212" d="M768.257,978.329c-41.62,0-82.022-8.163-120.084-24.262c-36.738-15.539-69.721-37.773-98.033-66.086
			c-28.312-28.312-50.546-61.295-66.085-98.033c-16.1-38.062-24.262-78.465-24.262-120.085c0-41.619,8.163-82.021,24.262-120.084
			c15.539-36.738,37.773-69.721,66.085-98.033s61.295-50.546,98.033-66.085c38.063-16.099,78.465-24.262,120.084-24.262
			c41.619,0,82.021,8.163,120.084,24.262c36.738,15.539,69.722,37.773,98.033,66.085c28.312,28.312,50.547,61.295,66.086,98.033
			c16.099,38.062,24.262,78.465,24.262,120.084c0,41.62-8.163,82.022-24.262,120.085c-15.539,36.738-37.773,69.722-66.085,98.033
			c-28.312,28.312-61.296,50.547-98.033,66.086C850.278,970.166,809.876,978.329,768.257,978.329z M768.257,466.163
			c-112.321,0-203.701,91.38-203.701,203.7c0,112.321,91.38,203.702,203.701,203.702s203.701-91.381,203.701-203.702
			C971.958,557.543,880.578,466.163,768.257,466.163z"/>
	</g>
	<circle fill="#F68212" cx="769.263" cy="670.794" r="86.429"/>
</g>
<g>
	<path d="M443.233,249.432V723.77c0,142.561-84.24,229.393-221.616,229.393C84.24,953.162,0,866.33,0,723.77V249.432
		C0,106.871,84.24,20.039,221.617,20.039C358.994,20.039,443.233,106.871,443.233,249.432z M137.376,250.728v471.746
		c0,67.393,29.808,103.681,84.241,103.681c54.432,0,84.24-36.288,84.24-103.681V250.728c0-67.393-29.808-103.681-84.24-103.681
		C167.185,147.047,137.376,183.335,137.376,250.728z"/>
</g>
<g>
	<path d="M1296.394,556.586h-63.504v383.617h-137.377V33h198.289c147.744,0,228.097,80.352,228.097,229.393v64.8
		c0,95.905-33.696,163.297-97.2,199.585l125.713,413.426h-145.153L1296.394,556.586z M1232.89,429.577h55.728
		c66.097,0,95.905-34.992,95.905-111.457v-46.656c0-76.464-29.809-111.457-95.905-111.457h-55.728V429.577z"/>
</g>
</svg>
